<?xml version="1.0" encoding="iso-8859-1"?>
<!-- Generator: Adobe Illustrator 19.0.0, SVG Export Plug-In . SVG Version: 6.00 Build 0)  -->
<svg version="1.1" id="Capa_1" xmlns="http://www.w3.org/2000/svg" xmlns:xlink="http://www.w3.org/1999/xlink" x="0px" y="0px"
	 viewBox="0 0 490 490" style="enable-background:new 0 0 490 490;" xml:space="preserve">
<g>
	<path d="M42.314,0v490h405.373V0H42.314z M427.27,469.583H62.73V20.417h364.54V469.583z"/>
	<path d="M395.658,49.786H94.333v128.271h301.324V49.786z M375.241,157.641H114.75V70.203h260.491V157.641z"/>
	<polygon points="161.575,223.028 141.158,223.028 141.158,255.717 108.469,255.717 108.469,276.133 141.158,276.133 
		141.158,308.822 161.575,308.822 161.575,276.133 194.263,276.133 194.263,255.717 161.575,255.717 	"/>
	<rect x="108.469" y="405.044" width="85.794" height="20.417"/>
	<rect x="295.737" y="405.044" width="85.794" height="20.417"/>
	<rect x="295.737" y="358.528" width="85.794" height="20.417"/>
	<polygon points="300.134,307.993 315.473,307.993 376.315,224.92 360.987,224.92 	"/>
	<path d="M315.05,222.905c-9.937,0-17.993,8.564-17.993,19.129c0,10.564,8.056,19.128,17.993,19.128
		c9.937,0,17.993-8.564,17.993-19.128C333.043,231.47,324.987,222.905,315.05,222.905z M315.05,250.471
		c-3.747,0-6.785-3.777-6.785-8.437c0-4.66,3.038-8.437,6.785-8.437s6.785,3.777,6.785,8.437
		C321.836,246.693,318.798,250.471,315.05,250.471z"/>
	<path d="M344.299,289.986c0,10.565,8.056,19.128,17.993,19.128c9.938,0,17.993-8.564,17.993-19.128
		c0-10.564-8.056-19.129-17.993-19.129C352.355,270.857,344.299,279.422,344.299,289.986z M369.078,289.986
		c0,4.659-3.038,8.437-6.785,8.437s-6.785-3.777-6.785-8.437c0-4.66,3.038-8.437,6.785-8.437S369.078,285.327,369.078,289.986z"/>
</g>
<g>
</g>
<g>
</g>
<g>
</g>
<g>
</g>
<g>
</g>
<g>
</g>
<g>
</g>
<g>
</g>
<g>
</g>
<g>
</g>
<g>
</g>
<g>
</g>
<g>
</g>
<g>
</g>
<g>
</g>
</svg>
